<svg xmlns="http://www.w3.org/2000/svg" xmlns:xlink="http://www.w3.org/1999/xlink" width="500" zoomAndPan="magnify" viewBox="0 0 375 374.999991" height="500" preserveAspectRatio="xMidYMid meet" version="1.0"><defs><g/><clipPath id="d211612d10"><path d="M 0 2.691406 L 372.308594 2.691406 L 372.308594 375 L 0 375 Z M 0 2.691406 " clip-rule="nonzero"/></clipPath><clipPath id="3785c19c55"><path d="M 54 2.691406 L 318.308594 2.691406 C 348.132812 2.691406 372.308594 26.867188 372.308594 56.691406 L 372.308594 321 C 372.308594 350.824219 348.132812 375 318.308594 375 L 54 375 C 24.175781 375 0 350.824219 0 321 L 0 56.691406 C 0 26.867188 24.175781 2.691406 54 2.691406 Z M 54 2.691406 " clip-rule="nonzero"/></clipPath><clipPath id="e51def8f8f"><path d="M 0 0.691406 L 372.308594 0.691406 L 372.308594 373 L 0 373 Z M 0 0.691406 " clip-rule="nonzero"/></clipPath><clipPath id="dfd011eabf"><path d="M 54 0.691406 L 318.308594 0.691406 C 348.132812 0.691406 372.308594 24.867188 372.308594 54.691406 L 372.308594 319 C 372.308594 348.824219 348.132812 373 318.308594 373 L 54 373 C 24.175781 373 0 348.824219 0 319 L 0 54.691406 C 0 24.867188 24.175781 0.691406 54 0.691406 Z M 54 0.691406 " clip-rule="nonzero"/></clipPath><clipPath id="731d66958b"><rect x="0" width="373" y="0" height="373"/></clipPath><clipPath id="73da84e015"><rect x="0" width="300" y="0" height="252"/></clipPath></defs><g clip-path="url(#d211612d10)"><g clip-path="url(#3785c19c55)"><g transform="matrix(1, 0, 0, 1, 0, 2)"><g clip-path="url(#731d66958b)"><g clip-path="url(#e51def8f8f)"><g clip-path="url(#dfd011eabf)"><path fill="#0f172a" d="M 0 0.691406 L 372.308594 0.691406 L 372.308594 373 L 0 373 Z M 0 0.691406 " fill-opacity="1" fill-rule="nonzero"/></g></g></g></g></g></g><g transform="matrix(1, 0, 0, 1, 39, 56)"><g clip-path="url(#73da84e015)"><g fill="#ffffff" fill-opacity="1"><g transform="translate(0.981707, 196.182738)"><g><path d="M 64.390625 2.46875 C 53.003906 2.46875 42 0.925781 31.375 -2.15625 C 20.75 -5.25 12.210938 -9.265625 5.765625 -14.203125 L 17.078125 -39.296875 C 23.242188 -34.765625 30.578125 -31.128906 39.078125 -28.390625 C 47.585938 -25.648438 56.09375 -24.28125 64.59375 -24.28125 C 74.0625 -24.28125 81.054688 -25.6875 85.578125 -28.5 C 90.109375 -31.3125 92.375 -35.046875 92.375 -39.703125 C 92.375 -43.128906 91.035156 -45.972656 88.359375 -48.234375 C 85.679688 -50.503906 82.25 -52.320312 78.0625 -53.6875 C 73.882812 -55.0625 68.234375 -56.570312 61.109375 -58.21875 C 50.128906 -60.820312 41.140625 -63.425781 34.140625 -66.03125 C 27.148438 -68.644531 21.148438 -72.832031 16.140625 -78.59375 C 11.140625 -84.351562 8.640625 -92.035156 8.640625 -101.640625 C 8.640625 -110.003906 10.898438 -117.578125 15.421875 -124.359375 C 19.953125 -131.148438 26.773438 -136.535156 35.890625 -140.515625 C 45.015625 -144.492188 56.160156 -146.484375 69.328125 -146.484375 C 78.515625 -146.484375 87.5 -145.382812 96.28125 -143.1875 C 105.0625 -141 112.742188 -137.847656 119.328125 -133.734375 L 109.046875 -108.421875 C 95.734375 -115.960938 82.425781 -119.734375 69.125 -119.734375 C 59.800781 -119.734375 52.910156 -118.222656 48.453125 -115.203125 C 43.992188 -112.191406 41.765625 -108.21875 41.765625 -103.28125 C 41.765625 -98.34375 44.332031 -94.671875 49.46875 -92.265625 C 54.613281 -89.867188 62.46875 -87.503906 73.03125 -85.171875 C 84.007812 -82.566406 92.992188 -79.960938 99.984375 -77.359375 C 106.984375 -74.753906 112.984375 -70.640625 117.984375 -65.015625 C 122.992188 -59.390625 125.5 -51.773438 125.5 -42.171875 C 125.5 -33.941406 123.203125 -26.429688 118.609375 -19.640625 C 114.015625 -12.859375 107.117188 -7.476562 97.921875 -3.5 C 88.734375 0.476562 77.554688 2.46875 64.390625 2.46875 Z M 64.390625 2.46875 "/></g></g></g><g fill="#ffffff" fill-opacity="1"><g transform="translate(132.232996, 196.182738)"><g><path d="M 149.15625 -144.015625 L 149.15625 0 L 115.828125 0 L 115.828125 -59.046875 L 50.40625 -59.046875 L 50.40625 0 L 17.078125 0 L 17.078125 -144.015625 L 50.40625 -144.015625 L 50.40625 -87.234375 L 115.828125 -87.234375 L 115.828125 -144.015625 Z M 149.15625 -144.015625 "/></g></g></g></g></g></svg>